<?xml version="1.0" standalone="no"?>
<!DOCTYPE svg PUBLIC "-//W3C//DTD SVG 20010904//EN"
 "http://www.w3.org/TR/2001/REC-SVG-20010904/DTD/svg10.dtd">
<svg version="1.0" xmlns="http://www.w3.org/2000/svg"
 width="566.000000pt" height="566.000000pt" viewBox="0 0 566.000000 566.000000"
 preserveAspectRatio="xMidYMid meet">
<metadata>
Created by potrace 1.14, written by Peter Selinger 2001-2017
</metadata>
<g transform="translate(0.000000,566.000000) scale(0.100000,-0.100000)"
fill="#000000" stroke="none">
<path d="M3166 4653 c-4 -5 -26 -9 -49 -10 -60 -4 -67 -5 -61 -14 2 -4 -6 -9
-18 -11 -18 -2 -22 -9 -21 -28 2 -21 1 -22 -7 -8 -12 19 -44 13 -36 -8 7 -19
-18 -36 -33 -21 -10 9 -11 8 -5 -7 5 -13 4 -17 -4 -12 -6 3 -13 2 -17 -3 -3
-5 -15 -8 -26 -6 -21 4 -21 4 -3 -17 11 -12 14 -18 7 -15 -6 4 -14 1 -16 -5
-4 -9 -6 -7 -6 3 -1 14 -63 50 -83 49 -13 0 -9 -15 5 -15 24 -1 55 -16 60 -29
4 -10 -2 -13 -19 -12 -13 0 -22 6 -20 12 2 6 -2 11 -10 11 -8 0 -14 -6 -14
-14 0 -7 -4 -13 -10 -13 -5 0 -7 7 -4 15 4 8 2 15 -4 15 -14 0 -8 -33 6 -38
19 -6 14 -18 -8 -19 -11 -1 -23 3 -26 9 -5 7 -2 8 7 3 11 -6 12 -5 2 5 -10 11
-15 11 -29 -1 -12 -9 -15 -10 -10 -1 4 7 1 15 -8 18 -9 3 -13 11 -10 16 4 6
10 5 16 -3 7 -10 8 -8 2 6 -4 11 -7 28 -8 37 0 9 -5 16 -10 15 -6 -1 -10 3
-11 10 0 6 -4 15 -9 20 -5 5 -6 3 -2 -4 4 -7 2 -13 -3 -13 -6 0 -11 -5 -11
-11 0 -5 4 -8 9 -4 6 3 15 -3 20 -14 18 -33 17 -33 -42 -16 -17 4 -26 13 -23
20 3 8 -2 12 -12 10 -9 -1 -23 3 -31 9 -8 6 -4 -4 9 -21 23 -32 39 -46 24 -21
-4 7 -3 8 4 4 6 -4 8 -14 5 -23 -5 -14 -9 -13 -25 7 -10 12 -18 18 -18 13 0
-5 5 -14 12 -21 9 -9 9 -12 -2 -12 -10 0 -11 -3 -4 -10 6 -6 9 -24 6 -40 -4
-27 -7 -29 -49 -27 -26 1 -49 -3 -55 -11 -8 -9 -14 -9 -25 -1 -11 9 -12 9 -8
-3 3 -8 -1 -21 -10 -28 -8 -7 -15 -9 -15 -5 0 4 -6 3 -12 -2 -7 -5 -26 -10
-43 -11 -23 -2 -26 0 -15 7 12 8 10 10 -7 8 -20 -1 -21 -3 -8 -17 13 -15 13
-17 0 -17 -8 0 -15 3 -15 7 0 4 -7 7 -15 7 -12 0 -12 -3 -2 -15 11 -13 9 -14
-13 -2 -24 13 -24 12 -10 -5 8 -10 10 -16 5 -13 -6 4 -17 3 -25 -2 -11 -7 -11
-12 -2 -23 9 -11 9 -14 -3 -14 -8 0 -12 4 -9 9 4 6 -17 6 -44 -1 -1 -1 3 -11
9 -23 6 -13 8 -20 4 -16 -5 4 -15 2 -24 -5 -14 -11 -15 -10 -1 8 14 18 14 19
-2 7 -9 -8 -14 -20 -11 -28 3 -8 -1 -14 -11 -14 -9 0 -15 -3 -15 -7 3 -20 -3
-23 -22 -12 -13 7 -19 7 -15 1 3 -6 2 -13 -4 -17 -13 -8 -13 -25 1 -25 5 0 8
4 4 9 -3 5 -1 12 4 16 11 6 7 -27 -5 -47 -5 -7 -12 -5 -22 8 -13 18 -14 18 -7
-3 5 -19 3 -22 -11 -16 -12 4 -15 3 -10 -5 4 -7 2 -12 -4 -12 -6 0 -8 -4 -5
-10 3 -5 2 -10 -2 -10 -5 0 -26 -16 -47 -35 -21 -19 -45 -35 -53 -35 -8 0 -11
-4 -8 -10 4 -6 -1 -7 -11 -3 -11 4 -15 3 -10 -5 10 -16 -15 -27 -26 -11 -7 11
-8 10 -6 -4 2 -11 -8 -24 -27 -35 -16 -9 -32 -19 -35 -22 -17 -17 -43 -33 -37
-23 4 6 2 15 -4 19 -7 4 -9 3 -6 -3 4 -6 0 -19 -8 -29 -10 -14 -14 -15 -15 -5
0 17 -15 5 -15 -12 -1 -7 -6 -11 -13 -10 -7 2 -12 -4 -12 -13 0 -8 -4 -12 -10
-9 -5 3 -10 -1 -10 -10 0 -9 -4 -13 -10 -10 -5 3 -10 -1 -10 -9 0 -9 -3 -16
-7 -16 -5 0 -16 -20 -26 -45 -11 -25 -24 -45 -29 -45 -6 0 -4 -8 3 -17 10 -12
10 -15 1 -9 -8 5 -14 -2 -18 -23 -4 -17 -10 -31 -15 -31 -5 0 -5 -7 -2 -17 4
-11 3 -14 -5 -9 -12 7 -16 -10 -13 -46 1 -10 -3 -18 -9 -18 -6 0 -9 -4 -5 -9
3 -5 1 -12 -5 -16 -5 -3 -10 -11 -10 -16 0 -6 5 -7 12 -3 7 4 8 3 4 -5 -4 -6
-13 -10 -20 -9 -6 2 -11 -1 -11 -7 0 -5 6 -9 13 -9 10 2 10 -1 0 -13 -19 -23
-19 -46 -1 -39 12 5 13 4 5 -7 -7 -8 -9 -17 -5 -20 3 -4 1 -7 -4 -7 -15 0 -10
-30 6 -39 10 -6 9 -10 -4 -14 -11 -5 -14 -3 -9 6 5 8 2 7 -9 -2 -9 -7 -17 -16
-17 -19 0 -3 3 -3 6 1 3 3 12 1 19 -6 16 -15 3 -63 -16 -59 -8 2 -2 -8 13 -22
23 -22 25 -30 18 -56 -5 -19 -5 -28 1 -25 13 9 11 -9 -3 -24 -8 -9 -8 -11 -2
-8 17 9 25 -18 11 -33 -9 -10 -9 -11 1 -6 6 4 12 2 12 -3 0 -6 -4 -11 -10 -11
-5 0 -10 -5 -10 -11 0 -5 4 -8 9 -4 5 3 13 1 16 -5 4 -6 3 -9 -2 -8 -4 2 -8
-1 -8 -7 0 -5 5 -9 10 -7 7 2 7 0 0 -7 -5 -5 -22 -11 -37 -13 -45 -6 -41 -15
6 -13 35 1 43 -2 38 -14 -3 -9 -1 -12 6 -7 7 4 10 -1 7 -14 -2 -11 2 -20 8
-20 7 0 4 -5 -5 -11 -10 -5 -15 -17 -12 -27 5 -14 4 -14 -4 -2 -8 10 -8 18 0
27 7 9 7 13 0 13 -5 0 -13 -7 -16 -16 -3 -8 -10 -12 -16 -9 -6 4 -7 12 -3 18
4 7 0 6 -10 -2 -9 -7 -17 -19 -17 -25 0 -6 4 -5 9 3 6 9 11 10 15 2 4 -6 11
-9 15 -6 14 8 7 -28 -12 -65 -10 -19 -12 -27 -4 -18 8 10 17 15 21 11 4 -4 4
1 0 11 -5 14 -4 17 4 12 7 -4 12 -2 12 6 1 7 7 2 15 -12 17 -30 18 -40 4 -40
-5 0 -8 4 -5 8 2 4 0 14 -5 22 -7 11 -8 7 -5 -12 4 -26 -3 -33 -27 -29 -5 1
-6 -3 -2 -9 4 -7 12 -7 25 0 29 16 38 11 10 -5 -14 -8 -32 -14 -41 -15 -12 0
-16 -10 -15 -39 0 -22 4 -37 8 -35 4 2 5 13 3 24 -5 27 21 47 28 21 3 -11 0
-23 -7 -26 -6 -3 -1 -3 11 -1 12 2 22 1 21 -3 0 -3 1 -8 2 -11 6 -16 7 -39 2
-39 -28 4 -33 -2 -15 -18 10 -10 14 -15 9 -10 -16 12 -25 8 -36 -15 -10 -21
-10 -21 3 -5 11 14 17 15 25 5 6 -7 11 -16 11 -20 1 -5 1 -11 2 -15 0 -5 4 1
9 12 8 18 9 18 9 2 1 -10 5 -16 10 -12 5 3 12 1 15 -4 3 -4 -4 -8 -17 -7 -12
0 -22 -4 -22 -11 0 -6 -3 -15 -7 -19 -4 -3 -6 3 -3 15 2 11 0 21 -5 21 -5 0
-10 -10 -12 -22 -2 -12 -10 -23 -18 -25 -9 -3 -11 -1 -5 4 6 4 10 15 10 23 -1
8 6 24 14 35 16 19 15 20 -5 2 -11 -9 -24 -15 -27 -12 -4 3 -3 0 2 -6 12 -15
2 -41 -13 -32 -7 4 -7 1 1 -9 7 -8 11 -17 9 -19 -2 -2 7 -5 20 -5 13 -1 21 2
18 8 -3 5 3 4 13 -3 23 -14 20 -54 -4 -64 -12 -4 -13 -2 -5 8 8 9 8 17 0 27
-8 13 -9 12 -5 -2 3 -9 -1 -22 -10 -30 -14 -11 -15 -10 -9 12 6 19 5 21 -3 10
-7 -10 -11 -11 -11 -2 0 6 -5 12 -11 12 -8 0 -8 -5 1 -15 10 -12 10 -18 0 -30
-9 -10 -9 -15 -1 -15 6 0 11 5 11 10 0 6 11 3 24 -5 22 -14 25 -14 40 0 12 12
16 13 16 3 0 -10 3 -9 10 2 8 13 10 12 10 -4 0 -13 5 -16 17 -12 16 6 16 6 0
-12 -21 -23 -21 -36 -1 -56 8 -9 11 -16 5 -16 -6 0 -8 -7 -5 -15 4 -8 10 -15
16 -15 5 0 6 6 2 13 -4 6 2 3 14 -7 21 -18 21 -20 5 -38 -9 -10 -13 -21 -10
-25 4 -3 7 -1 7 5 0 7 5 12 11 12 5 0 7 -4 4 -10 -3 -6 -1 -10 4 -10 6 0 11
-7 11 -16 0 -9 5 -12 13 -8 9 6 9 4 0 -7 -18 -18 -16 -29 5 -29 14 0 15 -2 2
-10 -11 -7 -11 -10 -2 -10 10 0 10 -5 1 -22 -12 -22 -11 -22 6 -8 17 14 18 13
12 -4 -7 -17 -6 -17 10 -5 13 11 15 11 9 1 -5 -8 -1 -22 11 -35 16 -19 16 -20
0 -8 -15 12 -17 12 -11 -3 3 -9 13 -16 21 -16 8 0 11 -4 8 -10 -9 -14 8 -12
25 3 8 6 6 2 -4 -10 -19 -23 -19 -23 10 -23 22 0 26 3 14 10 -9 6 -10 10 -3
10 7 0 25 -12 40 -26 15 -15 21 -22 12 -15 -16 11 -39 -2 -39 -23 0 -6 5 -3
11 7 8 14 14 15 24 7 10 -8 15 -8 20 0 5 8 11 8 21 -1 11 -9 14 -8 14 2 1 10
4 8 11 -3 5 -10 19 -23 31 -29 16 -9 19 -8 13 2 -6 9 -3 10 10 5 14 -5 15 -4
7 7 -8 10 -7 13 7 13 19 0 18 -17 0 -42 -5 -6 -3 -11 6 -11 8 0 12 3 10 7 -2
3 0 12 6 20 7 12 9 10 9 -7 0 -13 4 -23 10 -23 5 0 7 8 4 18 -4 12 -3 13 3 4
5 -7 9 -27 8 -45 -1 -17 2 -38 8 -45 7 -9 6 -11 -6 -6 -14 5 -15 1 -7 -28 13
-42 12 -51 -1 -42 -6 3 -3 -8 6 -26 14 -27 15 -37 4 -56 -7 -13 -17 -24 -23
-24 -6 0 -52 -20 -101 -44 -139 -67 -183 -86 -199 -86 -9 0 -16 -5 -16 -12 0
-6 -2 -9 -6 -6 -3 3 -44 -12 -92 -33 -48 -21 -92 -39 -99 -39 -6 0 -28 -9 -47
-21 -20 -12 -36 -17 -36 -12 0 4 -4 2 -8 -4 -6 -10 -214 -88 -257 -97 -5 -1
-32 -12 -60 -25 -27 -12 -72 -31 -100 -42 -81 -32 -228 -109 -242 -127 -14
-18 -33 -80 -39 -124 -1 -15 -8 -37 -14 -48 l-11 -20 1956 0 c1075 0 1955 3
1956 8 2 18 17 87 19 87 6 0 5 47 -1 51 -5 2 -6 10 -3 17 2 7 -6 22 -18 34
-38 34 -144 103 -160 103 -14 0 -34 10 -153 76 -123 67 -222 118 -297 150 -71
30 -95 37 -190 50 -21 3 -68 17 -105 31 -38 13 -78 26 -90 27 -20 3 -86 50
-128 92 -15 15 -12 62 5 74 4 3 6 15 5 27 -1 13 1 23 5 23 3 0 5 15 5 32 -1
18 2 38 7 45 5 7 5 14 -2 18 -8 5 -6 14 7 28 10 11 13 18 7 14 -7 -4 -11 4
-10 23 1 17 3 30 6 30 3 0 6 9 6 20 0 11 -4 20 -8 20 -10 0 3 33 16 42 14 9 6
15 -24 20 -23 3 -25 0 -25 -42 0 -25 -6 -51 -12 -58 -7 -7 -13 -24 -13 -37 0
-13 -5 -27 -11 -31 -8 -5 -6 -10 5 -16 16 -9 16 -11 -1 -23 -15 -11 -16 -17
-6 -33 13 -22 6 -37 -11 -23 -8 7 -11 -8 -11 -50 0 -32 -3 -59 -7 -59 -22 0
-47 42 -46 75 1 19 5 35 9 35 4 0 5 9 2 20 -3 11 0 26 6 34 9 11 9 16 0 21 -8
6 -7 10 2 16 11 7 11 9 1 9 -8 0 -10 5 -5 13 4 6 8 22 8 33 0 12 7 30 15 40
11 12 11 15 2 10 -11 -7 -11 -4 -1 12 7 12 17 19 21 16 4 -3 5 3 1 12 -4 11
-3 15 4 11 7 -5 9 0 6 13 -3 11 -1 20 5 20 6 0 12 12 14 28 2 15 8 26 16 24 6
-1 12 7 12 18 0 11 6 21 13 21 6 1 17 2 22 4 6 1 15 3 22 3 6 1 10 13 8 27 -1
14 2 25 8 25 5 0 3 8 -4 18 -7 9 -9 14 -5 10 9 -8 25 13 46 62 9 20 13 22 20
10 8 -12 10 -12 10 -1 0 7 6 11 14 8 10 -4 13 3 12 29 -1 19 2 34 7 34 4 0 5
5 2 10 -3 6 -1 10 5 10 6 0 8 5 4 12 -4 7 -3 8 4 4 7 -4 12 0 13 11 0 11 3 13
6 5 3 -7 -1 -19 -7 -28 -7 -8 -10 -17 -6 -21 3 -3 6 -1 6 5 0 7 7 12 15 12 8
0 15 -6 15 -12 0 -9 4 -8 10 2 8 12 10 12 10 1 0 -11 3 -11 17 0 9 8 14 9 10
2 -8 -13 18 -12 30 2 4 4 2 5 -6 0 -9 -5 -12 -4 -7 3 4 6 13 9 21 5 8 -3 15 0
15 7 0 6 4 8 10 5 6 -4 7 1 3 11 -4 11 -8 13 -11 6 -2 -7 -8 -12 -13 -12 -6 0
-7 4 -4 10 3 5 0 7 -8 4 -9 -3 -17 3 -20 16 -3 12 -10 19 -16 15 -16 -10 -13
1 5 15 12 11 15 11 12 0 -2 -8 3 -15 10 -16 6 -1 13 -2 15 -4 9 -7 36 -6 31 1
-3 5 -10 6 -16 3 -6 -4 -8 -2 -4 4 3 5 0 13 -6 15 -9 4 -10 6 -1 6 6 1 15 -4
18 -9 5 -8 11 -7 21 1 9 7 14 8 13 3 -4 -20 2 -28 10 -15 8 13 12 13 28 0 16
-12 17 -12 7 1 -6 8 -10 26 -8 38 3 16 0 22 -8 19 -7 -2 -12 -11 -12 -20 1 -9
-4 -13 -13 -10 -12 5 -12 8 1 22 10 11 12 21 5 34 -8 13 -7 17 3 15 7 -2 12 3
10 10 -1 8 2 11 7 7 15 -9 51 27 50 50 0 20 0 20 -9 0 -7 -17 -9 -17 -9 -2 -1
9 -6 17 -12 17 -8 0 -8 4 0 14 14 16 54 9 44 -8 -3 -6 3 -2 14 9 14 13 17 24
11 32 -15 18 10 26 28 9 24 -24 28 -19 9 10 -9 15 -13 24 -8 21 5 -3 14 3 20
13 10 15 9 17 -9 12 -21 -5 -21 -5 -2 20 10 14 23 23 28 20 5 -3 6 0 2 7 -4 6
-12 9 -17 6 -5 -4 -9 0 -10 7 0 7 -2 23 -3 35 -2 13 0 21 2 18 3 -3 11 3 19
13 10 11 12 12 8 2 -4 -8 1 -6 10 5 9 11 19 19 23 18 4 -1 6 4 4 12 -1 8 4 12
16 9 12 -4 29 8 52 32 18 21 26 35 17 31 -9 -3 -19 -2 -22 3 -10 16 -25 12
-25 -6 0 -14 -2 -15 -17 -3 -10 8 -14 9 -10 2 4 -6 4 -14 -1 -17 -5 -3 -9 2
-9 10 0 9 17 27 38 41 20 13 39 34 43 46 5 20 4 21 -8 4 -11 -13 -15 -15 -19
-5 -3 9 -9 8 -21 -7 -8 -11 -16 -18 -16 -15 -7 30 -7 39 -1 36 10 -7 45 35 48
57 2 9 -2 17 -8 17 -5 0 -8 -4 -5 -9 3 -4 -3 -16 -13 -25 -14 -13 -21 -14 -27
-5 -5 8 -3 10 6 4 10 -6 12 -4 7 9 -4 10 -3 15 3 11 6 -3 10 1 10 9 0 8 9 18
20 21 22 7 26 20 10 30 -7 4 -8 11 -1 18 6 9 2 12 -14 13 -13 1 -33 11 -45 22
-19 17 -19 20 -5 26 9 3 21 4 26 0 5 -3 9 0 9 5 0 10 -12 15 -30 13 -3 0 -6 8
-6 18 0 10 4 16 8 14 4 -3 8 2 8 11 0 10 5 13 13 9 6 -4 4 2 -6 13 -10 12 -20
37 -23 57 -3 30 -2 35 13 30 10 -3 6 2 -9 11 -16 8 -28 18 -28 21 0 3 5 2 12
-2 8 -5 8 -3 2 7 -8 13 -13 47 -14 103 -1 11 -6 28 -11 38 -7 14 -7 24 2 34 9
11 9 14 -1 14 -9 0 -9 4 -3 13 20 24 10 46 -29 62 -21 8 -38 19 -38 25 0 5 -8
7 -17 4 -15 -5 -16 -4 -3 5 14 10 7 16 -15 11 -5 -1 -4 4 3 11 9 10 15 10 24
1 7 -7 17 -12 23 -12 5 0 3 5 -5 10 -10 6 -11 10 -2 10 6 0 12 5 12 11 0 8 -4
8 -14 0 -17 -14 -30 1 -32 37 0 13 -5 27 -10 30 -8 6 -10 46 -5 100 1 8 6 10
14 6 7 -4 9 -3 4 2 -5 5 -14 9 -20 9 -7 0 -11 10 -11 23 1 19 -1 20 -14 10
-12 -10 -14 -10 -8 0 4 6 3 12 -3 12 -6 0 -8 7 -5 15 4 8 11 12 17 8 5 -3 7
-2 4 4 -4 6 -23 9 -43 6 -23 -2 -33 0 -29 7 3 6 10 8 15 5 4 -3 11 2 14 11 8
22 9 21 -16 27 -16 5 -19 9 -11 19 6 7 9 20 8 30 -2 9 5 18 16 21 20 5 27 27
8 27 -17 0 -34 23 -34 45 0 11 -6 23 -15 28 -10 5 -8 6 8 3 15 -3 22 1 22 11
0 10 -6 14 -20 10 -11 -3 -18 -1 -15 3 3 5 -2 13 -11 18 -12 7 -13 11 -5 17 8
5 5 12 -10 26 -12 10 -25 16 -29 14 -4 -3 -10 2 -14 10 -3 8 -12 15 -21 15 -8
0 -15 5 -15 10 0 6 -9 10 -21 10 -11 0 -17 5 -14 10 10 16 -1 11 -16 -7 -8
-10 -9 -14 -2 -10 6 4 14 3 18 -2 5 -9 -5 -8 -55 4 -8 2 -18 4 -22 4 -5 1 -8
7 -8 14 0 7 -10 13 -22 14 -22 2 -22 1 -4 -13 11 -8 15 -14 10 -14 -6 0 -19 9
-31 19 -23 22 -117 57 -159 60 -6 1 -16 11 -23 24 -6 12 -9 14 -6 4 2 -10 1
-16 -3 -13 -5 3 -25 6 -45 8 -21 1 -37 5 -37 9 0 4 -10 5 -22 1 -13 -3 -19 -1
-15 5 4 6 -4 9 -18 7 -14 -1 -25 2 -25 8 0 6 -9 8 -20 5 -11 -3 -20 -1 -20 4
0 5 -5 9 -11 9 -5 0 -7 -6 -3 -12 5 -9 3 -9 -9 1 -9 7 -14 17 -11 22 6 11 0
12 -10 2z m-20 -32 c1 -6 0 -7 -2 -2 -3 5 -13 7 -23 4 -10 -3 -21 -1 -24 4 -3
5 6 8 21 7 14 0 27 -6 28 -13z m-96 -21 c0 -5 -4 -10 -10 -10 -5 0 -10 5 -10
10 0 6 5 10 10 10 6 0 10 -4 10 -10z m-205 -140 c3 -5 2 -10 -4 -10 -5 0 -13
5 -16 10 -3 6 -2 10 4 10 5 0 13 -4 16 -10z m-342 -65 c-3 -9 -8 -14 -10 -11
-3 3 -2 9 2 15 9 16 15 13 8 -4z m1493 -501 c1 -9 0 -13 -4 -10 -3 4 -7 14 -8
22 -1 9 0 13 4 10 3 -4 7 -14 8 -22z m144 -489 c7 -9 8 -15 2 -15 -5 0 -12 7
-16 15 -3 8 -4 15 -2 15 2 0 9 -7 16 -15z m29 -157 c7 11 9 11 13 0 10 -25 9
-32 -7 -34 -8 -1 -13 2 -10 6 3 5 -3 11 -13 14 -10 4 -19 14 -19 22 0 14 2 14
14 -2 11 -15 16 -16 22 -6z m-115 -414 c16 -6 12 -24 -5 -24 -6 0 -8 4 -5 9 4
5 0 12 -6 14 -7 3 -10 6 -6 6 3 1 13 -2 22 -5z m-2452 -86 c-15 -15 -16 -32
-2 -23 6 3 10 4 10 1 0 -16 -21 -13 -30 5 -7 13 -8 19 -2 15 6 -3 13 -2 17 4
3 5 9 10 13 10 3 0 1 -5 -6 -12z m15 -60 c-3 -8 -6 -5 -6 6 -1 11 2 17 5 13 3
-3 4 -12 1 -19z m14 -225 c-12 -20 -14 -14 -5 12 4 9 9 14 11 11 3 -2 0 -13
-6 -23z m44 -103 c-3 -5 -1 -10 6 -10 7 0 10 -3 6 -6 -9 -9 -28 6 -22 17 4 5
8 9 11 9 3 0 2 -4 -1 -10z m250 -309 c3 -5 2 -12 -3 -15 -5 -3 -9 1 -9 9 0 17
3 19 12 6z m116 -26 c3 2 10 -4 16 -14 9 -15 7 -17 -16 -17 -21 0 -27 4 -27
22 0 16 3 20 11 14 7 -6 14 -8 16 -5z m-36 -63 c-3 -3 -11 0 -18 7 -9 10 -8
11 6 5 10 -3 15 -9 12 -12z"/>
<path d="M2027 2009 c7 -7 15 -10 18 -7 3 3 -2 9 -12 12 -14 6 -15 5 -6 -5z"/>
<path d="M2613 4603 c4 -3 1 -13 -6 -22 -11 -14 -10 -14 5 -2 16 12 16 31 1
31 -4 0 -3 -3 0 -7z"/>
<path d="M3440 4600 c18 -12 30 -13 30 -2 0 4 -10 9 -22 9 -18 2 -20 0 -8 -7z"/>
<path d="M3480 4606 c0 -2 8 -10 18 -17 15 -13 16 -12 3 4 -13 16 -21 21 -21
13z"/>
<path d="M3520 4572 c-13 -14 -12 -15 2 -10 8 4 22 1 29 -5 9 -9 9 -6 -1 8 -8
11 -14 21 -15 21 0 1 -7 -5 -15 -14z"/>
<path d="M2740 4540 c-9 -6 -10 -10 -3 -10 6 0 15 5 18 10 8 12 4 12 -15 0z"/>
<path d="M3666 4507 c3 -10 9 -15 12 -12 3 3 0 11 -7 18 -10 9 -11 8 -5 -6z"/>
<path d="M3690 4500 c0 -5 5 -10 11 -10 5 0 7 5 4 10 -3 6 -8 10 -11 10 -2 0
-4 -4 -4 -10z"/>
<path d="M2725 4490 c-3 -6 1 -7 9 -4 18 7 21 14 7 14 -6 0 -13 -4 -16 -10z"/>
<path d="M2510 4442 c0 -5 7 -9 15 -9 8 0 12 4 9 9 -3 4 -9 8 -15 8 -5 0 -9
-4 -9 -8z"/>
<path d="M2433 4385 c0 -8 4 -12 9 -9 5 3 6 10 3 15 -9 13 -12 11 -12 -6z"/>
<path d="M3875 4390 c3 -5 8 -10 11 -10 2 0 4 5 4 10 0 6 -5 10 -11 10 -5 0
-7 -4 -4 -10z"/>
<path d="M3915 4300 c3 -5 11 -10 16 -10 6 0 7 5 4 10 -3 6 -11 10 -16 10 -6
0 -7 -4 -4 -10z"/>
<path d="M3935 4221 c6 -11 4 -13 -11 -7 -10 4 -15 4 -11 0 4 -4 2 -13 -4 -21
-9 -10 -8 -13 2 -13 30 0 45 28 25 47 -6 5 -6 2 -1 -6z"/>
<path d="M4033 4185 c0 -8 4 -12 9 -9 5 3 6 10 3 15 -9 13 -12 11 -12 -6z"/>
<path d="M3930 4139 c0 -5 5 -7 10 -4 6 3 10 8 10 11 0 2 -4 4 -10 4 -5 0 -10
-5 -10 -11z"/>
<path d="M2016 4083 c-6 -14 -5 -15 5 -6 7 7 10 15 7 18 -3 3 -9 -2 -12 -12z"/>
<path d="M1976 4047 c3 -10 9 -15 12 -12 3 3 0 11 -7 18 -10 9 -11 8 -5 -6z"/>
<path d="M3995 3980 c3 -5 8 -10 11 -10 2 0 4 5 4 10 0 6 -5 10 -11 10 -5 0
-7 -4 -4 -10z"/>
<path d="M1860 3956 c7 -7 13 -7 20 0 6 6 3 10 -10 10 -13 0 -16 -4 -10 -10z"/>
<path d="M4063 3865 c0 -7 6 -11 14 -8 7 3 13 6 13 8 0 2 -6 5 -13 8 -8 3 -14
-1 -14 -8z"/>
<path d="M1530 3605 c0 -5 5 -17 10 -25 5 -8 10 -10 10 -5 0 6 -5 17 -10 25
-5 8 -10 11 -10 5z"/>
<path d="M4126 3581 c-3 -5 1 -14 8 -20 10 -9 16 -9 21 -1 4 6 1 9 -7 8 -7 -2
-12 3 -10 10 2 14 -4 16 -12 3z"/>
<path d="M4190 3323 c0 -7 0 -16 0 -20 0 -4 11 -8 25 -9 13 0 22 3 19 8 -3 4
-9 6 -14 3 -5 -3 -13 3 -19 12 -6 10 -11 12 -11 6z"/>
<path d="M1515 3280 c3 -5 8 -10 11 -10 2 0 4 5 4 10 0 6 -5 10 -11 10 -5 0
-7 -4 -4 -10z"/>
<path d="M4218 3238 c5 -5 16 -8 23 -6 8 3 3 7 -10 11 -17 4 -21 3 -13 -5z"/>
<path d="M1534 3192 c3 -5 0 -13 -6 -15 -9 -4 -10 -6 -1 -6 17 -1 25 16 12 25
-7 4 -9 3 -5 -4z"/>
<path d="M1466 3002 c-3 -5 1 -9 9 -9 8 0 15 4 15 9 0 4 -4 8 -9 8 -6 0 -12
-4 -15 -8z"/>
<path d="M1561 2944 c0 -11 3 -14 6 -6 3 7 2 16 -1 19 -3 4 -6 -2 -5 -13z"/>
<path d="M1485 2859 c2 -3 21 -6 41 -7 20 -1 34 2 30 6 -9 8 -76 10 -71 1z"/>
<path d="M1580 2671 c13 -9 12 -11 -5 -12 -11 -1 -24 -1 -28 0 -5 1 -6 -3 -2
-8 7 -12 43 -1 45 14 1 5 -4 11 -12 13 -9 2 -8 0 2 -7z"/>
<path d="M1426 2598 c3 -5 10 -6 15 -3 13 9 11 12 -6 12 -8 0 -12 -4 -9 -9z"/>
<path d="M1507 2599 c7 -7 15 -10 18 -7 3 3 -2 9 -12 12 -14 6 -15 5 -6 -5z"/>
<path d="M3935 2591 c-3 -5 -2 -12 3 -15 5 -3 9 1 9 9 0 17 -3 19 -12 6z"/>
<path d="M1454 2578 c-4 -7 -4 -10 1 -6 4 4 15 2 24 -5 14 -11 14 -10 2 6 -16
20 -18 21 -27 5z"/>
<path d="M3955 2541 c-6 -11 9 -23 19 -14 9 9 7 23 -3 23 -6 0 -12 -4 -16 -9z"/>
<path d="M1495 2520 c-3 -6 1 -7 9 -4 18 7 21 14 7 14 -6 0 -13 -4 -16 -10z"/>
<path d="M1515 2500 c3 -5 8 -10 11 -10 2 0 4 5 4 10 0 6 -5 10 -11 10 -5 0
-7 -4 -4 -10z"/>
<path d="M1495 2480 c-3 -5 -1 -10 4 -10 6 0 11 5 11 10 0 6 -2 10 -4 10 -3 0
-8 -4 -11 -10z"/>
<path d="M1690 2280 c0 -5 5 -10 11 -10 5 0 7 5 4 10 -3 6 -8 10 -11 10 -2 0
-4 -4 -4 -10z"/>
<path d="M3567 2157 c-20 -16 -26 -28 -22 -46 6 -30 11 -35 30 -27 12 4 13 10
6 23 -17 32 -16 34 8 47 13 7 19 16 14 19 -5 3 -21 -4 -36 -16z"/>
<path d="M1860 2000 c-8 -5 -10 -10 -5 -10 6 0 17 5 25 10 8 5 11 10 5 10 -5
0 -17 -5 -25 -10z"/>
</g>
</svg>
